<svg width="189" height="24" viewBox="0 0 189 24" fill="none" xmlns="http://www.w3.org/2000/svg">
<path d="M58.4971 13.4996C54.537 13.4996 50.6145 13.4996 46.6543 13.4996C46.5789 14.7223 47.7104 16.2124 49.1813 16.8619C51.1802 17.7407 53.0283 17.244 54.9518 15.219C55.7062 15.7539 56.4228 16.327 57.2148 16.9001C56.0833 18.3902 54.6501 19.3837 52.8775 19.8039C47.9744 20.912 43.2599 17.6261 43.4108 11.7803C43.4862 8.41798 45.372 5.66701 48.2761 4.59718C52.1231 3.2217 57.7805 4.78822 58.4594 11.0543C58.5349 11.8567 58.4971 12.6591 58.4971 13.4996ZM55.4044 10.7105C55.1781 8.57081 53.1792 6.88966 50.8785 6.92787C48.8041 6.96608 46.692 8.80006 46.5789 10.7105C49.5207 10.7105 52.4626 10.7105 55.4044 10.7105Z" fill="#1D1D1B"/>
<path d="M118.956 13.4997C114.996 13.4997 111.036 13.4997 107.038 13.4997C107.34 15.219 108.283 16.3271 109.791 16.9002C112.054 17.779 113.902 17.053 115.411 15.219C116.165 15.7921 116.92 16.3271 117.674 16.9002C115.939 19.078 113.789 20.1096 111.074 19.995C107.34 19.8422 104.285 16.9384 103.945 13.1558C103.719 10.8251 104.134 8.64725 105.643 6.81327C107.264 4.78825 109.414 3.94768 111.941 4.13872C114.355 4.29155 116.354 5.32316 117.674 7.38639C118.881 9.25858 119.145 11.3218 118.956 13.4997ZM107.038 10.7105C109.98 10.7105 112.922 10.7105 115.864 10.7105C115.637 8.53263 113.563 6.85148 111.225 6.9279C109.188 7.04252 107.076 8.91471 107.038 10.7105Z" fill="#1D1D1B"/>
<path d="M151.392 10.2137C151.505 8.18872 150.524 6.88965 148.752 6.66041C146.753 6.43116 145.621 7.27173 145.282 9.29675C144.377 9.29675 143.434 9.29675 142.453 9.29675C142.415 8.18872 142.679 7.19532 143.283 6.27833C144.075 5.13209 145.169 4.52076 146.451 4.2151C147.658 3.94764 148.865 3.94764 150.072 4.25331C152.373 4.82642 153.843 6.46937 154.183 8.83826C154.258 9.29675 154.296 9.75525 154.296 10.2137C154.296 13.2704 154.296 16.2888 154.296 19.3454C154.296 19.4601 154.296 19.6129 154.258 19.7657C153.466 19.7657 152.674 19.7657 151.807 19.7657C151.731 19.2308 151.618 18.6959 151.505 18.0846C150.713 18.8869 149.883 19.4983 148.865 19.8039C147.583 20.2242 146.3 20.3006 145.018 19.9568C143.321 19.4983 142.189 18.4285 141.85 16.6709C141.51 14.7987 142.001 13.1558 143.622 12.0095C144.98 11.0543 146.564 10.6722 148.186 10.4812C149.242 10.3666 150.298 10.2902 151.392 10.2137ZM151.392 12.6208C150.939 12.6208 150.487 12.5826 150.072 12.6208C148.639 12.6973 147.243 12.8501 145.999 13.6525C145.056 14.2256 144.678 15.1044 144.905 16.0596C145.093 16.9001 145.772 17.3968 146.866 17.5115C146.941 17.5115 147.017 17.5115 147.092 17.5115C149.695 17.5879 151.618 15.41 151.392 12.6208Z" fill="#1D1D1B"/>
<path d="M160.142 7.1571C160.142 11.36 160.142 15.4864 160.142 19.6893C159.161 19.6893 158.256 19.6893 157.275 19.6893C157.275 14.6076 157.275 9.52599 157.275 4.44434C161.349 4.44434 165.422 4.44434 169.533 4.44434C169.533 9.52599 169.533 14.5694 169.533 19.6893C168.59 19.6893 167.685 19.6893 166.667 19.6893C166.667 15.5246 166.667 11.36 166.667 7.1571C164.517 7.1571 162.367 7.1571 160.142 7.1571Z" fill="#1D1D1B"/>
<path d="M136.645 7.19531C135.174 7.19531 133.703 7.19531 132.232 7.19531C132.157 8.30334 132.157 9.37316 132.043 10.443C131.817 12.3152 131.666 14.2256 131.289 16.0978C130.761 18.5813 129.102 19.8039 126.612 19.8803C126.462 19.8803 126.311 19.8803 126.122 19.8803C126.122 18.9634 126.122 18.1228 126.122 17.2058C126.273 17.2058 126.424 17.1676 126.612 17.1676C127.48 17.053 128.196 16.6327 128.423 15.7539C128.724 14.7223 128.988 13.6524 129.064 12.5826C129.253 10.0227 129.366 7.42455 129.517 4.86462C129.517 4.71179 129.554 4.59717 129.554 4.44434C132.911 4.44434 136.192 4.44434 139.549 4.44434C139.549 9.5642 139.549 14.6459 139.549 19.7275C138.606 19.7275 137.663 19.7275 136.683 19.7275C136.645 15.5246 136.645 11.36 136.645 7.19531Z" fill="#1D1D1B"/>
<path d="M91.0088 4.40625C91.1974 4.40625 95.1953 4.40625 97.0433 4.40625C100.098 4.40625 102.512 6.66052 102.814 9.79357C103.078 12.5828 101.041 15.2955 98.1748 15.7922C97.1565 15.9833 94.2901 15.9068 93.9129 15.9068C93.9129 17.2059 93.9129 18.4286 93.9129 19.6894C92.9323 19.6894 92.0271 19.6894 91.0465 19.6894C91.0088 14.646 91.0088 9.56432 91.0088 4.40625ZM93.9129 13.1177C95.0444 13.1177 96.1759 13.1941 97.2696 13.1177C98.6651 13.003 99.7589 11.7422 99.8343 10.3285C99.9098 8.91479 98.9668 7.50109 97.6091 7.31005C96.4022 7.15722 95.1575 7.27185 93.9129 7.27185C93.9129 9.18224 93.9129 11.1308 93.9129 13.1177Z" fill="#1D1D1B"/>
<path d="M72.0752 19.7275C72.0752 14.6076 72.0752 9.5642 72.0752 4.44434C73.0181 4.44434 73.9233 4.44434 74.9416 4.44434C74.9416 6.04907 74.9416 7.69201 74.9416 9.37316C75.2056 9.37316 78.0343 9.29674 79.2035 9.48778C81.1647 9.79345 82.4471 11.0925 83.0128 12.9647C83.5786 14.8751 83.2014 16.6327 81.8814 18.1228C80.9007 19.2308 79.6561 19.7275 78.1852 19.7275C76.2994 19.7275 72.2638 19.7275 72.0752 19.7275ZM74.9793 16.9765C75.1679 16.9765 77.28 17.0147 78.1852 16.9383C79.3921 16.8237 80.2596 15.7921 80.2973 14.6076C80.335 13.4614 79.543 12.3152 78.4115 12.2005C77.28 12.0859 76.1485 12.1623 75.017 12.1623C74.9793 13.7671 74.9793 15.3336 74.9793 16.9765Z" fill="#1D1D1B"/>
<path d="M173.041 19.7275C173.041 14.6077 173.041 9.52599 173.041 4.44434C173.984 4.44434 174.927 4.44434 175.907 4.44434C175.907 6.08728 175.907 7.69201 175.907 9.41137C177.001 9.41137 178.02 9.41137 179.038 9.41137C179.453 9.41137 179.905 9.44958 180.32 9.52599C182.809 10.0609 184.431 12.468 184.167 15.1808C183.903 17.7407 181.791 19.7657 179.264 19.7657C177.19 19.7275 175.153 19.7275 173.041 19.7275ZM175.945 16.9383C177.077 16.9383 178.17 17.053 179.264 16.9001C180.509 16.7473 181.339 15.5628 181.225 14.3402C181.112 13.0793 180.094 12.1623 178.812 12.1241C178.208 12.1241 176.285 12.1241 175.945 12.1241C175.945 13.8053 175.945 15.3718 175.945 16.9383Z" fill="#1D1D1B"/>
<path d="M41.1482 19.7275C40.2053 19.7275 39.3002 19.7275 38.3195 19.7275C38.3195 17.7025 38.3195 15.7157 38.3195 13.6142C37.3012 14.1874 36.2829 14.493 35.1891 14.5312C33.5296 14.6076 32.021 14.302 30.7763 13.0793C29.8334 12.1623 29.4186 11.0543 29.3809 9.79345C29.3431 8.07409 29.3809 4.52075 29.4186 4.44434C30.3615 4.44434 31.2667 4.44434 32.2473 4.44434C32.2473 4.97925 32.2096 8.37975 32.3227 9.60241C32.4358 10.9015 33.1902 11.6274 34.4725 11.7421C35.7171 11.8949 36.924 11.5892 38.0178 10.9779C38.2818 10.8251 38.3573 10.634 38.3573 10.3284C38.3573 8.53259 38.3573 4.63538 38.3573 4.44434C39.3379 4.44434 40.2431 4.44434 41.2237 4.44434C41.1482 9.52599 41.1482 14.6076 41.1482 19.7275Z" fill="#1D1D1B"/>
<path d="M62.8726 7.1571C61.3262 7.1571 59.8553 7.1571 58.3467 7.1571C58.3467 6.24011 58.3467 5.32312 58.3467 4.44434C62.3446 4.44434 66.3048 4.44434 70.3404 4.44434C70.3404 5.32312 70.3404 6.2019 70.3404 7.1571C68.8694 7.1571 67.3608 7.1571 65.8522 7.1571C65.8522 11.36 65.8522 15.5246 65.8522 19.7275C64.8338 19.7275 63.8909 19.7275 62.8726 19.7275C62.8726 15.5246 62.8726 11.36 62.8726 7.1571Z" fill="#1D1D1B"/>
<path d="M84.748 4.44434C85.7287 4.44434 86.6338 4.44434 87.6145 4.44434C87.6145 9.52599 87.6145 14.6076 87.6145 19.7275C86.6338 19.7275 85.6909 19.7275 84.748 19.7275C84.748 14.6076 84.748 9.52599 84.748 4.44434Z" fill="#1D1D1B"/>
<path d="M188.58 19.7274C187.599 19.7274 186.656 19.7274 185.676 19.7274C185.676 14.6457 185.676 9.56408 185.676 4.48242C186.619 4.48242 187.599 4.48242 188.58 4.48242C188.58 9.52587 188.58 14.6075 188.58 19.7274Z" fill="#1D1D1B"/>
<path d="M23.8362 0.012207H11.918V24.1596H23.8362V0.012207Z" fill="#F7BDC6"/>
<path d="M11.9182 0.012207H0V24.1596H11.9182V0.012207Z" fill="#EA5B0C"/>
<path d="M16.8212 11.7801C16.4064 11.5508 16.3309 11.1305 16.7835 10.9013C17.0098 10.8249 17.6887 10.672 18.3676 10.5574C19.7254 10.29 20.178 9.22015 20.1402 7.88287C20.1402 7.73004 19.8762 7.57721 19.7254 7.61541C18.0659 7.65362 16.8967 8.11212 16.4441 6.46917C16.1423 5.55218 15.652 5.09369 15.4257 5.1319C15.0863 5.1319 15.2749 6.08709 15.1994 6.46917C15.1617 6.46917 14.6714 5.05548 14.2188 5.1319C13.8794 5.20831 13.9925 5.70502 13.9548 7.11871C13.9171 7.80645 13.8794 9.83147 12.5216 10.3282C11.6164 10.672 10.0701 10.5192 8.82545 10.3282C8.14656 10.2136 7.09051 9.44939 6.56249 8.34136C6.48706 8.15032 6.29848 8.18853 6.26076 8.37957C6.03446 9.14373 6.29848 10.3282 6.97736 11.1305C6.07218 11.8183 3.96008 13.4994 3.2812 15.2952C3.20576 15.5627 4.03552 16.174 4.26181 16.0212C5.35558 15.066 7.0528 13.6141 7.69397 13.6141C7.80711 13.7287 5.77045 14.7221 4.45039 17.3202C4.37496 17.5877 5.35558 18.3518 5.58187 18.1608C6.71335 17.0528 7.27909 16.3268 8.86316 15.6009C9.99464 15.1042 11.9559 14.7985 13.7662 15.257C15.3126 15.6391 16.4441 16.2886 18.179 17.5877C18.7825 18.0844 19.3105 17.2056 19.1596 16.7471C18.3676 15.0278 15.5389 13.7287 15.652 13.4994C15.7275 13.3084 17.5378 14.2636 19.1219 15.257C19.5368 15.4098 20.2157 14.6457 20.0271 14.3018C19.0465 12.9645 17.8396 12.3532 16.8212 11.7801Z" fill="#1D1D1B"/>
</svg>
